<svg version="1.2" xmlns="http://www.w3.org/2000/svg" viewBox="0 0 390 430" width="390" height="430">
	<style>
		.s0 { fill: #f9b728;stroke: #231f20;stroke-linecap: round;stroke-linejoin: round;stroke-width: 1.5 } 
		.s1 { fill: #f0f4da;stroke: #231f20;stroke-linecap: round;stroke-linejoin: round;stroke-width: 1.5 } 
		.s2 { fill: #231f20;stroke: #231f20;stroke-linecap: round;stroke-linejoin: round;stroke-width: 1.5 } 
		.s3 { fill: #0ba65b;stroke: #231f20;stroke-linecap: round;stroke-linejoin: round;stroke-width: 1.5 } 
		.s4 { fill: #f97428 } 
		.s5 { fill: #f38ba3 } 
		.s6 { fill: #0ba65b } 
		.s7 { fill: #12b2e2 } 
		.s8 { fill: #e31b23;stroke: #231f20;stroke-linecap: round;stroke-linejoin: round;stroke-width: 1.5 } 
		.s9 { fill: #7b5ea4;stroke: #231f20;stroke-linejoin: round;stroke-width: 1.5 } 
		.s10 { fill: #f9f4da;stroke: #231f20;stroke-linejoin: round;stroke-width: 1.5 } 
		.s11 { fill: #231f20;stroke: #231f20;stroke-linejoin: round;stroke-width: 1.5 } 
		.s12 { fill: #7b5ea7;stroke: #231f20;stroke-linecap: round;stroke-linejoin: round;stroke-width: 1.5 } 
		.s13 { fill: #12b2e2;stroke: #231f20;stroke-linecap: round;stroke-linejoin: round;stroke-width: 1.5 } 
		.s14 { fill: #231f20 } 
		.s15 { fill: #ea203d;stroke: #231f20;stroke-linecap: round;stroke-linejoin: round;stroke-width: 1.5 } 
		.s16 { fill: #f97428;stroke: #231f20;stroke-linejoin: round;stroke-width: 1.5 } 
		.s17 { fill: #f38ba3;stroke: #231f20;stroke-linecap: round;stroke-linejoin: round;stroke-width: 1.5 } 
	</style>
	<path fill-rule="evenodd" class="s0" d="m194.32 225.73l-160.92 15.71 28.28 12.39 173-16.4-40.36-11.7z"/>
	<path fill-rule="evenodd" class="s0" d="m93.26 245.48l-12.78-5.35-1.39-14.61 12.48 2.13 1.69 17.83z"/>
	<path fill-rule="evenodd" class="s1" d="m91.59 227.65l89.75-8.52 1.69 17.83-89.75 8.52z"/>
	<path fill-rule="evenodd" class="s0" d="m37.08 107.72l-26.92 17.46 7 73.83 28.58 11.35-8.66-102.64z"/>
	<path fill-rule="evenodd" class="s0" d="m60.57 242.19l-28.17-11.33-13.44-141.68 25.64-15.42 15.97 168.43z"/>
	<path fill-rule="evenodd" class="s1" d="m24.89 97.18l14.92-8.98"/>
	<path fill-rule="evenodd" class="s1" d="m25.67 105.4l14.92-8.97"/>
	<path fill-rule="evenodd" class="s1" d="m26.45 113.63l14.92-8.98"/>
	<path fill-rule="evenodd" class="s1" d="m44.6 73.76l173-16.42 15.98 168.44-173 16.41z"/>
	<path fill-rule="evenodd" class="s1" d="m61.68 253.83l173-16.41 3.04 32.12-172.99 16.42z"/>
	<path fill-rule="evenodd" class="s2" d="m72.1 87.1l120.99-11.48c5.39-0.51 10.17 3.44 10.68 8.83l11.13 117.29c0.51 5.39-3.44 10.17-8.83 10.69l-120.99 11.48c-5.39 0.51-10.17-3.45-10.69-8.83l-11.12-117.3c-0.52-5.39 3.44-10.17 8.83-10.68z"/>
	<path fill-rule="evenodd" class="s0" d="m33.4 241.44l2.76 29.06 28.57 15.46-3.05-32.13-28.28-12.39z"/>
	<path fill-rule="evenodd" class="s3" d="m222.64 220.21c-2.2 0-3.97-1.77-3.97-3.97 0-2.2 1.77-3.97 3.97-3.97 2.2 0 3.97 1.77 3.97 3.97 0 2.2-1.77 3.97-3.97 3.97z"/>
	<path fill-rule="evenodd" class="s2" d="m155.27 252.58l68.47-6.5 0.35 3.66-68.48 6.49z"/>
	<path fill-rule="evenodd" class="s1" d="m70.62 260.61l72.18-6.85 0.81 8.51-72.18 6.85z"/>
	<path fill-rule="evenodd" class="s1" d="m210.26 258.16l14.48-1.37 0.67 7.06-14.48 1.37z"/>
	<path fill-rule="evenodd" class="s1" d="m192.73 259.82l14.49-1.37 0.67 7.05-14.49 1.38z"/>
	<path class="s4" d="m80.54 114.95c0.34 3.59 0.14 6.25-4.5 6.69-0.68 0.07-1.55 0.08-2.08 0.04l-0.36-3.8c0.25 0 0.64 0 1.04-0.04 1.2-0.11 1.5-0.54 1.36-1.96l-1.74-18.39 4.58-0.43z"/>
	<path class="s4" d="m87.32 114.55l-0.05 5.72-4.67 0.44 1.11-24.11 6.82-0.65 5.7 23.46-4.76 0.45-1.19-5.6c0 0-2.96 0.28-2.96 0.29zm2.19-4.28c-0.63-3.01-1.54-7.6-1.98-9.85l-0.18 0.02c0.07 1.67 0.02 7.07-0.02 10.04z"/>
	<path class="s4" d="m100.35 119.03l-5.83-23.45 4.87-0.46 1.69 8.73c0.58 3.03 1.29 6.45 1.74 9.46l0.18-0.02c-0.14-3.04-0.06-6.34-0.11-9.58l-0.09-8.92 4.78-0.45-1.26 24.12-5.96 0.57z"/>
	<path class="s4" d="m115.09 111.92l-0.05 5.72-4.67 0.44 1.11-24.11 6.82-0.65 5.7 23.46-4.76 0.45-1.19-5.6c0 0-2.96 0.28-2.96 0.29zm2.19-4.28c-0.63-3.01-1.54-7.6-1.98-9.85l-0.18 0.02c0.08 1.67 0.02 7.07-0.02 10.04z"/>
	<path class="s4" d="m128.68 108.94l0.16 1.65c0.15 1.57 0.6 2.25 1.65 2.15 1.05-0.1 1.2-1.2 1.09-2.32-0.21-2.24-0.7-2.85-3.32-4.66-2.89-2.02-4.4-3.23-4.73-6.73-0.32-3.4 0.51-6.64 5.01-7.06 4.78-0.45 5.8 2.74 6.06 5.47l0.13 1.37-4.32 0.41-0.13-1.42c-0.14-1.44-0.44-2.14-1.35-2.05-0.84 0.08-1.05 0.83-0.92 2.18 0.14 1.43 0.46 2.11 2.58 3.46 3.76 2.42 5.16 3.84 5.53 7.76 0.35 3.73-0.63 6.92-5.35 7.36-4.54 0.43-6.09-2.18-6.43-5.71l-0.13-1.43 4.48-0.42z"/>
	<path class="s4" d="m149.53 106.53l0.12 1.29c0.29 3 0.1 6.89-5.36 7.4-4.03 0.38-5.98-1.6-6.4-5.97l-1.11-11.67c-0.39-4.14 1.46-6.51 5.28-6.88 5.03-0.48 6.16 2.75 6.45 5.87l0.14 1.49-4.61 0.44-0.19-2.03c-0.12-1.31-0.47-1.95-1.42-1.86-0.94 0.09-1.19 0.74-1.06 2.09l1.19 12.58c0.12 1.27 0.42 2.12 1.45 2.02 0.99-0.09 1.21-0.85 1.07-2.37l-0.19-1.98 4.63-0.44z"/>
	<path class="s4" d="m155.81 103.33l0.98 10.34-4.57 0.43-2.26-23.79 5.94-0.56c3.99-0.38 6.12 1.19 6.52 5.35l0.08 0.86c0.32 3.39-0.94 4.53-1.91 5.11 1.55 0.57 2.35 1.6 2.66 4.92 0.22 2.3 0.51 5.77 0.83 7.01l-4.43 0.42c-0.4-1.05-0.67-4.15-0.96-7.18-0.25-2.68-0.6-3.1-2.34-2.94l-0.54 0.05zm-0.33-3.61l0.57-0.05c1.53-0.14 2.11-0.69 1.9-2.9l-0.11-1.15c-0.15-1.6-0.55-2.36-2.23-2.2l-0.71 0.07 0.59 6.24z"/>
	<path class="s4" d="m168.7 88.54l2.26 23.79-4.57 0.43-2.26-23.79z"/>
	<path class="s4" d="m171.57 88.27l6.1-0.58q5.92-0.57 6.51 5.74l0.14 1.45c0.4 4.17-0.94 6.83-5.45 7.26l-1.34 0.13 0.89 9.35-4.58 0.43-2.26-23.79zm5.6 10.29l0.74-0.07c1.74-0.17 2.01-1.17 1.82-3.15l-0.16-1.64c-0.15-1.54-0.6-2.5-2.12-2.35l-0.96 0.09z"/>
	<path class="s4" d="m188.27 90.77l-3.46 0.33-0.38-4.05 11.52-1.09 0.38 4.05-3.49 0.33 1.87 19.75-4.57 0.43z"/>
	<path class="s5" d="m83.48 145.91c0.34 3.59 0.14 6.25-4.5 6.69-0.68 0.07-1.55 0.08-2.08 0.04l-0.36-3.8c0.25 0 0.64 0 1.04-0.04 1.2-0.11 1.5-0.54 1.36-1.96l-1.74-18.39 4.58-0.43z"/>
	<path class="s5" d="m90.25 145.5l-0.05 5.72-4.67 0.44 1.11-24.11 6.82-0.65 5.7 23.46-4.76 0.45-1.19-5.6-2.96 0.28zm2.2-4.28c-0.63-3.01-1.54-7.6-1.98-9.85l-0.18 0.02c0.07 1.67 0.02 7.07-0.02 10.04z"/>
	<path class="s5" d="m103.29 149.98l-5.83-23.45 4.87-0.46 1.69 8.73c0.58 3.03 1.29 6.45 1.74 9.46l0.18-0.02c-0.14-3.04-0.06-6.34-0.11-9.58l-0.09-8.92 4.78-0.45-1.26 24.12-5.96 0.57z"/>
	<path class="s5" d="m118.02 142.87l-0.05 5.72-4.67 0.44 1.11-24.11 6.82-0.65 5.7 23.46-4.76 0.45-1.19-5.6-2.96 0.28zm2.2-4.28c-0.63-3.01-1.54-7.6-1.98-9.85l-0.18 0.02c0.08 1.67 0.02 7.07-0.02 10.04z"/>
	<path class="s5" d="m131.62 139.9l0.16 1.65c0.15 1.56 0.6 2.25 1.65 2.16 1.05-0.1 1.2-1.2 1.09-2.32-0.21-2.24-0.7-2.85-3.32-4.66-2.89-2.02-4.4-3.23-4.73-6.73-0.32-3.4 0.51-6.64 5.01-7.06 4.78-0.45 5.8 2.74 6.06 5.47l0.13 1.37-4.32 0.41-0.13-1.43c-0.14-1.44-0.44-2.13-1.35-2.05-0.84 0.08-1.05 0.83-0.92 2.18 0.14 1.43 0.46 2.12 2.58 3.46 3.76 2.42 5.16 3.84 5.53 7.76 0.35 3.73-0.63 6.92-5.35 7.36-4.54 0.43-6.09-2.18-6.43-5.71l-0.13-1.43 4.48-0.42z"/>
	<path class="s5" d="m152.47 137.48l0.12 1.29c0.28 3 0.1 6.89-5.36 7.4-4.03 0.38-5.98-1.6-6.4-5.97l-1.11-11.67c-0.39-4.14 1.47-6.51 5.28-6.88 5.03-0.48 6.16 2.75 6.45 5.87l0.14 1.49-4.61 0.44-0.19-2.03c-0.12-1.31-0.47-1.95-1.42-1.86-0.94 0.09-1.19 0.74-1.06 2.09l1.19 12.58c0.12 1.27 0.42 2.12 1.45 2.02 0.99-0.09 1.21-0.85 1.07-2.37l-0.19-1.98 4.63-0.44z"/>
	<path class="s5" d="m158.75 134.29l0.98 10.34-4.57 0.43-2.26-23.79 5.94-0.56c3.99-0.38 6.12 1.19 6.52 5.35l0.08 0.86c0.32 3.39-0.94 4.53-1.91 5.11 1.55 0.57 2.35 1.6 2.66 4.92 0.22 2.3 0.51 5.77 0.83 7.01l-4.43 0.42c-0.4-1.05-0.67-4.15-0.96-7.18-0.25-2.68-0.6-3.1-2.34-2.94l-0.54 0.05zm-0.33-3.61l0.57-0.05c1.53-0.14 2.11-0.69 1.9-2.9l-0.11-1.15c-0.15-1.6-0.55-2.36-2.23-2.2l-0.71 0.07 0.59 6.24z"/>
	<path class="s5" d="m171.64 119.49l2.26 23.79-4.57 0.43-2.26-23.79z"/>
	<path class="s5" d="m174.51 119.22l6.1-0.58q5.92-0.57 6.51 5.74l0.14 1.45c0.39 4.17-0.94 6.83-5.45 7.26l-1.34 0.13 0.89 9.35-4.58 0.43-2.26-23.79zm5.6 10.3l0.74-0.07c1.74-0.17 2.01-1.17 1.82-3.15l-0.16-1.64c-0.15-1.54-0.6-2.5-2.12-2.35l-0.96 0.09z"/>
	<path class="s5" d="m191.2 121.72l-3.46 0.33-0.38-4.05 11.52-1.09 0.38 4.05-3.49 0.33 1.87 19.75-4.57 0.43-1.87-19.74z"/>
	<path class="s6" d="m86.42 176.86c0.34 3.59 0.14 6.25-4.5 6.69-0.68 0.07-1.55 0.08-2.08 0.04l-0.36-3.8c0.25 0 0.64 0 1.03-0.04 1.2-0.11 1.5-0.54 1.36-1.96l-1.75-18.39 4.58-0.43 1.7 17.89z"/>
	<path class="s6" d="m93.19 176.46l-0.05 5.72-4.67 0.44 1.11-24.11 6.82-0.65 5.7 23.46-4.76 0.45-1.19-5.6-2.96 0.28zm2.19-4.28c-0.63-3.01-1.54-7.6-1.98-9.85l-0.18 0.02c0.07 1.67 0.02 7.07-0.02 10.04z"/>
	<path class="s6" d="m106.22 180.93l-5.83-23.45 4.87-0.46 1.69 8.73c0.58 3.03 1.29 6.45 1.74 9.46l0.18-0.02c-0.14-3.04-0.06-6.34-0.11-9.58l-0.09-8.92 4.78-0.45-1.26 24.12-5.96 0.57z"/>
	<path class="s6" d="m120.96 173.82l-0.05 5.72-4.67 0.44 1.11-24.11 6.82-0.65 5.7 23.46-4.76 0.45-1.19-5.6c0 0-2.96 0.28-2.96 0.29zm2.19-4.28c-0.63-3.01-1.54-7.6-1.98-9.85l-0.18 0.02c0.08 1.67 0.02 7.07-0.02 10.04z"/>
	<path class="s6" d="m134.56 170.85l0.16 1.65c0.15 1.57 0.61 2.25 1.65 2.16 1.05-0.1 1.2-1.2 1.09-2.32-0.21-2.25-0.7-2.86-3.32-4.66-2.9-2.02-4.4-3.23-4.73-6.74-0.32-3.4 0.51-6.64 5.01-7.06 4.78-0.45 5.8 2.74 6.06 5.47l0.13 1.37-4.32 0.41-0.14-1.43c-0.14-1.44-0.44-2.13-1.35-2.05-0.84 0.08-1.05 0.83-0.92 2.18 0.14 1.43 0.46 2.12 2.58 3.46 3.76 2.42 5.16 3.84 5.53 7.76 0.35 3.73-0.63 6.92-5.35 7.36-4.54 0.43-6.09-2.18-6.43-5.71l-0.13-1.42 4.48-0.42z"/>
	<path class="s6" d="m155.4 168.43l0.12 1.29c0.28 3 0.09 6.89-5.36 7.4-4.03 0.38-5.98-1.6-6.4-5.97l-1.11-11.67c-0.39-4.14 1.47-6.51 5.28-6.88 5.03-0.48 6.16 2.75 6.45 5.87l0.14 1.49-4.61 0.44-0.19-2.03c-0.12-1.31-0.47-1.95-1.42-1.86-0.94 0.09-1.19 0.74-1.06 2.09l1.19 12.58c0.12 1.27 0.41 2.12 1.45 2.02 0.99-0.09 1.22-0.85 1.07-2.37l-0.19-1.98 4.63-0.44z"/>
	<path class="s6" d="m161.68 165.24l0.98 10.34-4.57 0.43-2.26-23.79 5.94-0.56c3.99-0.38 6.12 1.19 6.52 5.35l0.08 0.86c0.32 3.39-0.94 4.53-1.91 5.11 1.55 0.57 2.35 1.6 2.66 4.92 0.22 2.3 0.51 5.77 0.83 7.01l-4.43 0.42c-0.4-1.05-0.67-4.15-0.96-7.18-0.25-2.68-0.6-3.1-2.34-2.94l-0.54 0.05zm-0.33-3.61l0.57-0.05c1.53-0.14 2.11-0.69 1.9-2.9l-0.11-1.15c-0.15-1.6-0.55-2.36-2.23-2.2l-0.71 0.07 0.59 6.24z"/>
	<path class="s6" d="m174.57 150.45l2.26 23.79-4.57 0.43-2.26-23.79z"/>
	<path class="s6" d="m177.44 150.17l6.1-0.58q5.92-0.57 6.51 5.74l0.14 1.45c0.4 4.17-0.94 6.83-5.45 7.26l-1.34 0.13 0.89 9.35-4.58 0.43-2.26-23.79zm5.6 10.3l0.74-0.07c1.74-0.17 2.01-1.17 1.82-3.15l-0.16-1.64c-0.15-1.54-0.6-2.5-2.12-2.35l-0.96 0.09 0.67 7.12z"/>
	<path class="s6" d="m194.14 152.67l-3.46 0.33-0.38-4.05 11.52-1.09 0.38 4.05-3.49 0.33 1.87 19.74-4.57 0.43z"/>
	<path class="s7" d="m89.35 207.81c0.34 3.59 0.14 6.25-4.5 6.69-0.68 0.07-1.55 0.08-2.08 0.04l-0.36-3.8c0.25 0 0.64 0 1.03-0.04 1.2-0.11 1.5-0.54 1.36-1.96l-1.74-18.39 4.58-0.43c0 0 1.7 17.89 1.71 17.89z"/>
	<path class="s7" d="m96.13 207.41l-0.05 5.72-4.67 0.44 1.11-24.11 6.82-0.65 5.7 23.46-4.76 0.45-1.19-5.6-2.96 0.28zm2.19-4.28c-0.63-3.01-1.54-7.6-1.98-9.86l-0.18 0.02c0.07 1.67 0.02 7.07-0.02 10.04l2.18-0.21z"/>
	<path class="s7" d="m109.16 211.89l-5.83-23.45 4.87-0.46 1.69 8.73c0.58 3.03 1.29 6.45 1.74 9.46l0.18-0.02c-0.14-3.04-0.06-6.34-0.11-9.58l-0.09-8.92 4.78-0.45-1.26 24.12-5.96 0.57z"/>
	<path class="s7" d="m123.89 204.78l-0.05 5.72-4.67 0.44 1.11-24.11 6.82-0.65 5.7 23.46-4.76 0.45-1.19-5.6-2.96 0.28zm2.2-4.28c-0.63-3.01-1.54-7.6-1.98-9.85l-0.18 0.02c0.08 1.67 0.02 7.07-0.02 10.04z"/>
	<path class="s7" d="m137.49 201.8l0.16 1.65c0.15 1.57 0.61 2.25 1.65 2.16 1.05-0.1 1.2-1.2 1.09-2.32-0.21-2.25-0.7-2.86-3.32-4.66-2.9-2.02-4.4-3.23-4.73-6.73-0.32-3.4 0.51-6.64 5.01-7.06 4.78-0.45 5.8 2.74 6.06 5.47l0.13 1.37-4.32 0.41-0.14-1.42c-0.14-1.44-0.44-2.13-1.35-2.05-0.84 0.08-1.05 0.83-0.92 2.18 0.14 1.43 0.46 2.12 2.58 3.46 3.76 2.42 5.16 3.84 5.53 7.76 0.35 3.73-0.63 6.91-5.35 7.36-4.54 0.43-6.09-2.18-6.43-5.71l-0.13-1.42 4.48-0.42z"/>
	<path class="s7" d="m158.34 199.39l0.12 1.29c0.28 3 0.09 6.89-5.36 7.4-4.03 0.38-5.98-1.6-6.4-5.97l-1.11-11.67c-0.39-4.14 1.46-6.51 5.28-6.88 5.03-0.48 6.16 2.75 6.45 5.87l0.14 1.49-4.61 0.44-0.19-2.03c-0.12-1.31-0.47-1.95-1.42-1.86-0.94 0.09-1.19 0.74-1.06 2.09l1.19 12.58c0.12 1.27 0.41 2.12 1.45 2.02 0.99-0.09 1.22-0.85 1.07-2.36l-0.19-1.98 4.63-0.44z"/>
	<path class="s7" d="m164.62 196.19l0.98 10.34-4.57 0.43-2.26-23.79 5.94-0.56c3.99-0.38 6.12 1.19 6.52 5.35l0.08 0.86c0.32 3.39-0.94 4.53-1.91 5.11 1.55 0.57 2.35 1.6 2.66 4.92 0.22 2.3 0.51 5.77 0.83 7l-4.43 0.42c-0.4-1.05-0.67-4.15-0.96-7.18-0.25-2.68-0.6-3.1-2.34-2.94l-0.54 0.05zm-0.33-3.61l0.57-0.05c1.53-0.14 2.11-0.69 1.9-2.9l-0.11-1.15c-0.15-1.6-0.55-2.36-2.23-2.2l-0.71 0.07 0.59 6.24z"/>
	<path class="s7" d="m177.51 181.4l2.26 23.79-4.57 0.43-2.26-23.79z"/>
	<path class="s7" d="m180.38 181.13l6.1-0.58q5.92-0.57 6.51 5.74l0.14 1.45c0.4 4.17-0.94 6.83-5.45 7.26l-1.34 0.13 0.89 9.35-4.58 0.43-2.26-23.79zm5.6 10.29l0.74-0.07c1.74-0.17 2.01-1.17 1.82-3.15l-0.16-1.64c-0.15-1.54-0.6-2.5-2.12-2.35l-0.96 0.09z"/>
	<path class="s7" d="m197.07 183.63l-3.46 0.33-0.38-4.05 11.52-1.09 0.38 4.05-3.49 0.33 1.87 19.74-4.57 0.43z"/>
	<path fill-rule="evenodd" class="s8" d="m229.22 383.78l90.67-144.1 59.95 37.73-90.68 144.09z"/>
	<path class="s9" d="m336.8 259.66c-2.08-1.31-5.87-6.07-4.57-8.14l9.85-8.62 8.23-13.07c1.31-2.08 4.07-2.7 6.15-1.4 2.08 1.31 2.7 4.07 1.4 6.15l-8.16 12.97-4.21 12.31c-1.31 2.08-6.61 1.11-8.69-0.2z"/>
	<path fill-rule="evenodd" class="s10" d="m302.1 228.49l47.74 30.05-26.63 42.32-47.74-30.05z"/>
	<path fill-rule="evenodd" class="s10" d="m219.34 360.03l47.74 30.04-7.9 12.56-47.75-30.04z"/>
	<path fill-rule="evenodd" class="s10" d="m267.09 390.07l-47.74-30.04 18.68-13.39 34.61-55.01 2.85-20.82 47.74 30.04-4.21 19.96-34.4 54.67-17.53 14.59z"/>
	<path fill-rule="evenodd" class="s11" d="m265.42 384.67l-38.82-24.43 16.09-11.54 33.6-53.39 2.45-17.93 39.42 24.8-3.63 17.19-33.41 53.1-15.7 12.2z"/>
	<path fill-rule="evenodd" class="s12" d="m269.4 377.87l6.68-4.86-33.31-20.96-6.74 4.82 33.37 21z"/>
	<path fill-rule="evenodd" class="s13" d="m312.68 316.28l2.75-13-34.43-21.66-1.85 13.56 33.53 21.1z"/>
	<path fill-rule="evenodd" class="s11" d="m303.49 235.62l39.31 24.74-20.99 33.35-39.31-24.73z"/>
	<path fill-rule="evenodd" class="s9" d="m311.55 248.73l16.07 10.11c4.42 2.78 5.75 8.63 2.97 13.06l-3.66 5.81c-2.79 4.43-8.63 5.76-13.06 2.97l-16.06-10.11c-4.43-2.78-5.76-8.63-2.98-13.06l3.66-5.81c2.79-4.43 8.64-5.76 13.06-2.97z"/>
	<path fill-rule="evenodd" class="s14" d="m309.57 260.29c-0.34 0-0.62-0.28-0.62-0.62 0-0.34 0.28-0.62 0.62-0.62 0.34 0 0.62 0.28 0.62 0.62 0 0.34-0.28 0.62-0.62 0.62z"/>
	<path fill-rule="evenodd" class="s14" d="m312.59 262.2c-0.34 0-0.62-0.28-0.62-0.62 0-0.34 0.28-0.62 0.62-0.62 0.34 0 0.62 0.28 0.62 0.62 0 0.34-0.28 0.62-0.62 0.62z"/>
	<path fill-rule="evenodd" class="s14" d="m315.62 264.1c-0.34 0-0.62-0.28-0.62-0.62 0-0.34 0.28-0.62 0.62-0.62 0.34 0 0.62 0.28 0.62 0.62 0 0.34-0.28 0.62-0.62 0.62z"/>
	<path fill-rule="evenodd" class="s14" d="m318.64 266c-0.34 0-0.62-0.28-0.62-0.62 0-0.34 0.28-0.62 0.62-0.62 0.34 0 0.62 0.28 0.62 0.62 0 0.34-0.28 0.62-0.62 0.62z"/>
	<path fill-rule="evenodd" class="s14" d="m306.83 264.66c-0.34 0-0.62-0.28-0.62-0.62 0-0.34 0.28-0.62 0.62-0.62 0.34 0 0.62 0.28 0.62 0.62 0 0.34-0.28 0.62-0.62 0.62z"/>
	<path fill-rule="evenodd" class="s14" d="m309.85 266.56c-0.34 0-0.62-0.28-0.62-0.62 0-0.34 0.28-0.62 0.62-0.62 0.34 0 0.62 0.28 0.62 0.62 0 0.34-0.28 0.62-0.62 0.62z"/>
	<path fill-rule="evenodd" class="s14" d="m312.87 268.46c-0.34 0-0.62-0.28-0.62-0.62 0-0.34 0.28-0.62 0.62-0.62 0.34 0 0.62 0.28 0.62 0.62 0 0.34-0.28 0.62-0.62 0.62z"/>
	<path fill-rule="evenodd" class="s14" d="m315.89 270.36c-0.34 0-0.62-0.28-0.62-0.62 0-0.34 0.28-0.62 0.62-0.62 0.34 0 0.62 0.28 0.62 0.62 0 0.34-0.28 0.62-0.62 0.62z"/>
	<path fill-rule="evenodd" class="s14" d="m309.71 263.43c-0.34 0-0.62-0.28-0.62-0.62 0-0.34 0.28-0.62 0.62-0.62 0.34 0 0.62 0.28 0.62 0.62 0 0.34-0.28 0.62-0.62 0.62z"/>
	<path fill-rule="evenodd" class="s14" d="m312.73 265.33c-0.34 0-0.62-0.28-0.62-0.62 0-0.34 0.28-0.62 0.62-0.62 0.34 0 0.62 0.28 0.62 0.62 0 0.34-0.28 0.62-0.62 0.62z"/>
	<path fill-rule="evenodd" class="s14" d="m315.75 267.23c-0.34 0-0.62-0.28-0.62-0.62 0-0.34 0.28-0.62 0.62-0.62 0.34 0 0.62 0.28 0.62 0.62 0 0.34-0.28 0.62-0.62 0.62z"/>
	<path fill-rule="evenodd" class="s0" d="m277.85 303.31l5.89 3.71c0.72 0.45 0.94 1.4 0.48 2.12l-3.11 4.95c-0.45 0.72-1.4 0.93-2.12 0.48l-5.89-3.71c-0.72-0.45-0.94-1.4-0.48-2.12l3.11-4.94c0.45-0.72 1.4-0.94 2.12-0.49z"/>
	<path fill-rule="evenodd" class="s0" d="m288.68 310.13l5.89 3.7c0.72 0.46 0.94 1.41 0.48 2.13l-3.11 4.94c-0.45 0.72-1.4 0.94-2.12 0.48l-5.89-3.7c-0.72-0.46-0.94-1.41-0.48-2.13l3.11-4.94c0.45-0.72 1.4-0.94 2.12-0.48z"/>
	<path fill-rule="evenodd" class="s0" d="m299.51 316.94l5.89 3.7c0.72 0.46 0.94 1.41 0.48 2.13l-3.11 4.94c-0.45 0.72-1.4 0.94-2.12 0.48l-5.89-3.7c-0.72-0.46-0.94-1.41-0.48-2.13l3.11-4.94c0.45-0.72 1.4-0.94 2.12-0.48z"/>
	<path fill-rule="evenodd" class="s10" d="m279.02 301.47l5.89 3.7c0.72 0.46 0.93 1.41 0.48 2.13l-3.11 4.94c-0.45 0.72-1.4 0.94-2.12 0.48l-5.89-3.7c-0.72-0.46-0.94-1.41-0.49-2.13l3.11-4.94c0.46-0.72 1.41-0.94 2.13-0.48z"/>
	<path fill-rule="evenodd" class="s10" d="m289.84 308.29l5.89 3.7c0.72 0.46 0.94 1.41 0.49 2.13l-3.11 4.94c-0.46 0.72-1.41 0.94-2.13 0.48l-5.89-3.7c-0.72-0.46-0.94-1.41-0.48-2.13l3.11-4.94c0.45-0.72 1.4-0.94 2.12-0.48z"/>
	<path fill-rule="evenodd" class="s10" d="m300.66 315.09l5.89 3.71c0.72 0.45 0.94 1.4 0.49 2.12l-3.11 4.95c-0.46 0.72-1.41 0.93-2.13 0.48l-5.89-3.71c-0.72-0.45-0.93-1.4-0.48-2.12l3.11-4.94c0.45-0.72 1.4-0.94 2.12-0.49z"/>
	<path fill-rule="evenodd" class="s0" d="m270.69 314.69l5.89 3.71c0.72 0.45 0.94 1.4 0.48 2.12l-3.11 4.95c-0.45 0.72-1.4 0.93-2.12 0.48l-5.89-3.71c-0.72-0.45-0.94-1.4-0.48-2.12l3.11-4.94c0.45-0.72 1.4-0.94 2.12-0.49z"/>
	<path fill-rule="evenodd" class="s0" d="m281.52 321.5l5.89 3.71c0.72 0.45 0.94 1.4 0.48 2.12l-3.11 4.95c-0.45 0.72-1.4 0.93-2.12 0.48l-5.89-3.71c-0.72-0.45-0.94-1.4-0.49-2.12l3.12-4.94c0.45-0.72 1.4-0.94 2.12-0.49z"/>
	<path fill-rule="evenodd" class="s0" d="m292.33 328.32l5.9 3.71c0.72 0.45 0.93 1.4 0.48 2.12l-3.11 4.94c-0.45 0.72-1.41 0.94-2.13 0.49l-5.89-3.71c-0.72-0.45-0.93-1.41-0.48-2.12l3.11-4.95c0.45-0.72 1.4-0.93 2.12-0.48z"/>
	<path fill-rule="evenodd" class="s10" d="m271.85 312.85l5.89 3.71c0.72 0.45 0.94 1.4 0.49 2.12l-3.12 4.95c-0.45 0.72-1.4 0.93-2.12 0.48l-5.89-3.71c-0.72-0.45-0.94-1.4-0.48-2.12l3.11-4.94c0.45-0.72 1.4-0.94 2.12-0.49z"/>
	<path fill-rule="evenodd" class="s10" d="m282.67 319.66l5.89 3.71c0.72 0.45 0.94 1.4 0.49 2.12l-3.11 4.94c-0.46 0.72-1.41 0.94-2.13 0.49l-5.89-3.71c-0.72-0.45-0.93-1.4-0.48-2.12l3.11-4.95c0.45-0.72 1.4-0.93 2.12-0.48z"/>
	<path fill-rule="evenodd" class="s10" d="m293.5 326.47l5.89 3.71c0.72 0.45 0.94 1.4 0.49 2.12l-3.11 4.94c-0.46 0.72-1.41 0.94-2.13 0.49l-5.89-3.71c-0.72-0.45-0.94-1.4-0.48-2.12l3.11-4.95c0.45-0.72 1.4-0.93 2.12-0.48z"/>
	<path fill-rule="evenodd" class="s0" d="m263.53 326.08l5.89 3.71c0.72 0.45 0.94 1.4 0.48 2.12l-3.11 4.94c-0.45 0.72-1.4 0.94-2.12 0.49l-5.89-3.71c-0.72-0.45-0.94-1.4-0.49-2.12l3.11-4.95c0.46-0.72 1.41-0.93 2.13-0.48z"/>
	<path fill-rule="evenodd" class="s0" d="m274.34 332.9l5.89 3.7c0.72 0.46 0.94 1.41 0.49 2.13l-3.11 4.94c-0.46 0.72-1.41 0.94-2.13 0.48l-5.89-3.7c-0.72-0.46-0.93-1.41-0.48-2.13l3.11-4.94c0.45-0.72 1.4-0.94 2.12-0.48z"/>
	<path fill-rule="evenodd" class="s0" d="m285.18 339.71l5.89 3.7c0.72 0.46 0.94 1.41 0.49 2.13l-3.11 4.94c-0.46 0.72-1.41 0.94-2.13 0.48l-5.89-3.7c-0.72-0.46-0.93-1.41-0.48-2.13l3.11-4.94c0.45-0.72 1.4-0.94 2.12-0.48z"/>
	<path fill-rule="evenodd" class="s10" d="m264.68 324.24l5.89 3.7c0.72 0.46 0.94 1.41 0.49 2.13l-3.11 4.94c-0.46 0.72-1.41 0.94-2.13 0.48l-5.89-3.7c-0.72-0.46-0.94-1.41-0.48-2.13l3.11-4.94c0.45-0.72 1.4-0.94 2.12-0.48z"/>
	<path fill-rule="evenodd" class="s10" d="m275.51 331.06l5.89 3.7c0.72 0.46 0.93 1.41 0.48 2.13l-3.11 4.94c-0.45 0.72-1.4 0.94-2.12 0.48l-5.89-3.7c-0.72-0.46-0.94-1.41-0.49-2.13l3.11-4.94c0.46-0.72 1.41-0.94 2.13-0.48z"/>
	<path fill-rule="evenodd" class="s10" d="m286.34 337.87l5.89 3.7c0.72 0.46 0.93 1.41 0.48 2.13l-3.11 4.94c-0.45 0.72-1.4 0.94-2.12 0.48l-5.9-3.7c-0.72-0.46-0.93-1.41-0.48-2.13l3.11-4.94c0.45-0.72 1.41-0.94 2.13-0.48z"/>
	<path fill-rule="evenodd" class="s15" d="m256.2 337.73l5.89 3.71c0.72 0.45 0.93 1.4 0.48 2.12l-3.11 4.94c-0.45 0.72-1.4 0.94-2.12 0.49l-5.89-3.71c-0.72-0.45-0.94-1.4-0.49-2.12l3.11-4.95c0.46-0.72 1.41-0.93 2.13-0.48z"/>
	<path fill-rule="evenodd" class="s0" d="m267.02 344.55l5.89 3.71c0.72 0.45 0.94 1.4 0.48 2.12l-3.11 4.94c-0.45 0.72-1.4 0.94-2.12 0.49l-5.89-3.71c-0.72-0.45-0.94-1.4-0.48-2.12l3.11-4.95c0.45-0.72 1.4-0.93 2.12-0.48z"/>
	<path fill-rule="evenodd" class="s15" d="m277.84 351.36l5.89 3.7c0.72 0.46 0.94 1.41 0.49 2.13l-3.12 4.94c-0.45 0.72-1.4 0.94-2.12 0.48l-5.89-3.7c-0.72-0.46-0.94-1.41-0.48-2.13l3.11-4.94c0.45-0.72 1.4-0.94 2.12-0.48z"/>
	<path fill-rule="evenodd" class="s16" d="m257.35 335.89l5.89 3.71c0.72 0.45 0.93 1.4 0.48 2.12l-3.11 4.94c-0.45 0.72-1.4 0.94-2.12 0.49l-5.89-3.71c-0.72-0.45-0.94-1.4-0.49-2.12l3.11-4.95c0.46-0.72 1.41-0.93 2.13-0.48z"/>
	<path fill-rule="evenodd" class="s10" d="m268.17 342.71l5.89 3.7c0.72 0.46 0.94 1.41 0.49 2.13l-3.11 4.94c-0.46 0.72-1.41 0.94-2.13 0.48l-5.89-3.7c-0.72-0.46-0.93-1.41-0.48-2.13l3.11-4.94c0.45-0.72 1.4-0.94 2.12-0.48z"/>
	<path fill-rule="evenodd" class="s16" d="m279 349.52l5.89 3.7c0.72 0.46 0.94 1.41 0.49 2.13l-3.11 4.94c-0.46 0.72-1.41 0.94-2.13 0.48l-5.89-3.7c-0.72-0.46-0.93-1.41-0.48-2.13l3.11-4.94c0.45-0.72 1.4-0.94 2.12-0.48z"/>
	<path fill-rule="evenodd" class="s12" d="m243.99 365.37l11.63 7.31c0.66 0.42 0.85 1.29 0.44 1.95l-0.01 0.01c-0.41 0.66-1.28 0.85-1.94 0.44l-11.63-7.32c-0.66-0.41-0.86-1.28-0.44-1.94v-0.01c0.42-0.66 1.29-0.86 1.95-0.44z"/>
	<path fill-rule="evenodd" class="s17" d="m208.45 338.82l-12.36-15.08 4.41-3.61-20.76-8.19 12.36 15.08-4.41 3.61 20.76 8.19z"/>
	<path fill-rule="evenodd" class="s17" d="m193.01 351.1l-19.13-3.74 1.09-5.59-21.22 6.93 19.14 3.74-1.1 5.59 21.22-6.93z"/>
	<path fill-rule="evenodd" class="s17" d="m196.08 370.27l-17.49 8.62-2.52-5.11-12.67 18.37 17.48-8.62 2.52 5.11 12.68-18.37z"/>
	<path fill-rule="evenodd" class="s0" d="m272.79 39.24l-19.79 10.82-3.16-5.79-13.76 21.85 19.79-10.82 3.16 5.79 13.76-21.85z"/>
	<path fill-rule="evenodd" class="s0" d="m249.63 0.51l-13.45 18.09-5.29-3.93-3.37 25.59 13.45-18.09 5.29 3.93 3.37-25.59z"/>
	<path fill-rule="evenodd" class="s0" d="m185.64 0.51l8.9 20.72-6.06 2.6 20.45 15.76-8.9-20.72 6.06-2.6-20.45-15.76z"/>
</svg>